<?xml version="1.0" encoding="utf-8"?>
<!-- Generator: Adobe Illustrator 19.0.1, SVG Export Plug-In . SVG Version: 6.00 Build 0)  -->
<svg version="1.1" id="Слой_1" xmlns="http://www.w3.org/2000/svg" xmlns:xlink="http://www.w3.org/1999/xlink" x="0px" y="0px"
	 viewBox="0 0 798.1 250" style="enable-background:new 0 0 798.1 250;" xml:space="preserve">
<style type="text/css">
	.st0{fill:url(#SVGID_1_);}
	.st1{fill:url(#SVGID_2_);}
	.st2{fill:url(#SVGID_3_);}
	.st3{fill:url(#SVGID_4_);}
	.st4{fill:url(#SVGID_5_);}
	.st5{fill:url(#SVGID_6_);}
	.st6{fill:url(#SVGID_7_);}
	.st7{fill:url(#SVGID_8_);}
	.st8{fill:url(#SVGID_9_);}
	.st9{fill:url(#SVGID_10_);}
	.st10{fill:url(#SVGID_11_);}
	.st11{fill:url(#SVGID_12_);}
	.st12{fill:url(#SVGID_13_);}
	.st13{fill:url(#SVGID_14_);}
	.st14{fill:url(#SVGID_15_);}
	.st15{fill:url(#SVGID_16_);}
	.st16{fill:url(#SVGID_17_);}
	.st17{fill:url(#SVGID_18_);}
	.st18{fill:url(#SVGID_19_);}
	.st19{fill:url(#SVGID_20_);}
	.st20{fill:url(#SVGID_21_);}
	.st21{fill:url(#SVGID_22_);}
	.st22{fill:url(#SVGID_23_);}
	.st23{fill:url(#SVGID_24_);}
	.st24{fill:url(#SVGID_25_);}
	.st25{fill:url(#SVGID_26_);}
	.st26{fill:url(#SVGID_27_);}
	.st27{fill:url(#SVGID_28_);}
	.st28{fill:url(#SVGID_29_);}
	.st29{fill:url(#SVGID_30_);}
	.st30{fill:url(#SVGID_31_);}
	.st31{fill:url(#SVGID_32_);}
	.st32{fill:url(#SVGID_33_);}
	.st33{fill:url(#SVGID_34_);}
	.st34{fill:url(#SVGID_35_);}
	.st35{fill:url(#SVGID_36_);}
	.st36{fill:url(#SVGID_37_);}
	.st37{fill:url(#SVGID_38_);}
	.st38{fill:url(#SVGID_39_);}
	.st39{fill:url(#SVGID_40_);}
	.st40{fill:url(#SVGID_41_);}
	.st41{fill:url(#SVGID_42_);}
	.st42{fill:url(#SVGID_43_);}
	.st43{fill:url(#SVGID_44_);}
	.st44{fill:url(#SVGID_45_);}
	.st45{fill:url(#SVGID_46_);}
	.st46{fill:url(#SVGID_47_);}
	.st47{fill:url(#SVGID_48_);}
	.st48{fill:url(#SVGID_49_);}
	.st49{fill:url(#SVGID_50_);}
	.st50{fill:url(#SVGID_51_);}
	.st51{fill:url(#SVGID_52_);}
</style>
<g>
	<g>
		<g>
			<radialGradient id="SVGID_1_" cx="65.8766" cy="232.8891" r="31.8922" gradientUnits="userSpaceOnUse">
				<stop  offset="0" style="stop-color:#FFDC61"/>
				<stop  offset="1" style="stop-color:#FCA84D"/>
			</radialGradient>
			<polygon class="st0" points="110.7,228.1 30.7,228.1 21,237.7 110.7,237.7 			"/>
			<radialGradient id="SVGID_2_" cx="738.4023" cy="232.8891" r="31.8903" gradientUnits="userSpaceOnUse">
				<stop  offset="0" style="stop-color:#FFDC61"/>
				<stop  offset="1" style="stop-color:#FCA84D"/>
			</radialGradient>
			<polygon class="st1" points="693.6,228.1 693.6,237.7 773.6,237.7 783.2,228.1 783.2,228.1 			"/>
		</g>
		<radialGradient id="SVGID_3_" cx="421.4475" cy="90.4631" r="64.1958" gradientUnits="userSpaceOnUse">
			<stop  offset="0" style="stop-color:#FFDC61"/>
			<stop  offset="1" style="stop-color:#FCA84D"/>
		</radialGradient>
		<polygon class="st2" points="421.4,49.9 414.6,56.7 340.2,131.1 340.3,131.1 353.9,131.1 421.4,63.5 489,131.1 502.6,131.1 
			502.6,131.1 428.3,56.7 		"/>
		<radialGradient id="SVGID_4_" cx="242.707" cy="93.4993" r="97.2373" gradientUnits="userSpaceOnUse">
			<stop  offset="0" style="stop-color:#FFDC61"/>
			<stop  offset="1" style="stop-color:#FCA84D"/>
		</radialGradient>
		<polygon class="st3" points="368.2,93.5 375,86.7 344.3,55.9 337.4,62.8 337.4,62.8 278.8,121.4 120.1,121.4 110.4,131.1 
			269.1,131.1 282.8,131.1 344.3,69.6 		"/>
		<radialGradient id="SVGID_5_" cx="480.9564" cy="33.7304" r="18.0965" gradientUnits="userSpaceOnUse">
			<stop  offset="0" style="stop-color:#FFDC61"/>
			<stop  offset="1" style="stop-color:#FCA84D"/>
		</radialGradient>
		<path class="st4" d="M468.8,46.9c0,0,1.5-2.7,3.6-4.2c13.2-9.7,15.8-20.8,15.8-20.8s-3,13.4-14.7,21.8c-2.6,1.8-4.3,6.4-5.1,10.9
			c0,0,1.8-0.7,2.6-0.9c0.3-2,1-3.9,2-5.6c16.4,1.9,21.7-11.2,22.4-15.9c1.6-10.9-4.2-19.1-4.2-19.1s-3.4,3.3-7.1,4.7
			C456.8,27.5,468.4,46.8,468.8,46.9z"/>
		<radialGradient id="SVGID_6_" cx="454.9197" cy="40.7585" r="11.9795" gradientUnits="userSpaceOnUse">
			<stop  offset="0" style="stop-color:#FFDC61"/>
			<stop  offset="1" style="stop-color:#FCA84D"/>
		</radialGradient>
		<path class="st5" d="M460.1,50.2c0.7,1.1,1.1,2.4,1.3,3.7c0.5,0.1,1.7,0.6,1.7,0.6c-0.5-3-1.6-6-3.4-7.2
			c-7.8-5.5-9.7-14.4-9.7-14.4s1.8,7.4,10.5,13.8c1.4,1,2.4,2.8,2.4,2.8c0.3,0,7.9-12.8-10.2-19.4c-2.5-0.9-4.7-3.1-4.7-3.1
			s-3.9,5.5-2.8,12.7C445.7,42.7,449.2,51.5,460.1,50.2z"/>
		<radialGradient id="SVGID_7_" cx="466.2558" cy="79.4286" r="17.5067" gradientUnits="userSpaceOnUse">
			<stop  offset="0" style="stop-color:#FFDC61"/>
			<stop  offset="1" style="stop-color:#FCA84D"/>
		</radialGradient>
		<polygon class="st6" points="480.7,99.5 480.7,69 480.7,59.4 471.1,59.4 461.4,59.4 451.8,59.4 451.8,69 451.8,70.5 461.4,80.2 
			461.4,69 471.1,69 471.1,89.8 		"/>
		<radialGradient id="SVGID_8_" cx="591.1284" cy="103.7451" r="75.1623" gradientUnits="userSpaceOnUse">
			<stop  offset="0" style="stop-color:#FFDC61"/>
			<stop  offset="1" style="stop-color:#FCA84D"/>
		</radialGradient>
		<polygon class="st7" points="564.1,121.4 526,83.3 519.1,76.4 519.1,76.4 512.3,83.3 512.3,83.3 488.4,107.2 495.2,114 
			519.1,90.1 560.1,131.1 560.1,131.1 573.8,131.1 684.2,131.1 693.9,121.4 		"/>
	</g>
	<g>
		<g>
			<radialGradient id="SVGID_9_" cx="38.0021" cy="179.05" r="21.1117" gradientUnits="userSpaceOnUse">
				<stop  offset="0" style="stop-color:#FFDC61"/>
				<stop  offset="1" style="stop-color:#FCA84D"/>
			</radialGradient>
			<path class="st8" d="M22.1,161.1c2-2.2,4.2-3.8,6.7-4.9c2.5-1.1,5.6-1.7,9.1-1.7c4.6,0,8.3,1,11,3.1c2.7,2,4.1,5,4.1,9
				c0,2.5-0.6,4.7-1.8,6.6c-1.2,2-3.1,3.4-5.7,4.2c3,0.6,5.3,1.9,7,4c1.6,2.1,2.5,4.6,2.5,7.7c0,2.3-0.4,4.3-1.3,6.1
				c-0.9,1.8-2.1,3.3-3.6,4.6c-1.5,1.2-3.4,2.2-5.6,2.9c-2.2,0.7-4.5,1-7,1c-3.5,0-6.6-0.6-9.3-1.7c-2.7-1.2-5.1-2.9-7.2-5.2
				l5.5-6.5c1.4,1.6,2.9,2.8,4.6,3.8c1.7,0.9,3.8,1.4,6.2,1.4c2.4,0,4.4-0.6,5.9-1.9c1.5-1.3,2.3-3,2.3-5.3c0-2.1-0.8-3.8-2.4-5.2
				c-1.6-1.4-4.1-2-7.3-2h-5v-7h4.5c2.9,0,5.1-0.5,6.7-1.6c1.5-1.1,2.3-2.6,2.3-4.5c0-1.7-0.6-3-1.7-4c-1.2-0.9-2.8-1.4-4.9-1.4
				c-2.1,0-4,0.4-5.7,1.2c-1.7,0.8-3.1,1.9-4.4,3.4L22.1,161.1z"/>
			<radialGradient id="SVGID_10_" cx="80.5605" cy="179.0798" r="23.4036" gradientUnits="userSpaceOnUse">
				<stop  offset="0" style="stop-color:#FFDC61"/>
				<stop  offset="1" style="stop-color:#FCA84D"/>
			</radialGradient>
			<path class="st9" d="M76.4,154.9h8.3l18.4,48.4h-9.7L89,191.2H72.1l-4.4,12.1H58L76.4,154.9z M87.3,184.6l-6.7-19l-7,19H87.3z"/>
			<radialGradient id="SVGID_11_" cx="121.11" cy="179.0798" r="22.2544" gradientUnits="userSpaceOnUse">
				<stop  offset="0" style="stop-color:#FFDC61"/>
				<stop  offset="1" style="stop-color:#FCA84D"/>
			</radialGradient>
			<path class="st10" d="M141.2,163.1h-15.5v40.1h-9.3v-40.1H101v-8.2h40.3V163.1z"/>
			<radialGradient id="SVGID_12_" cx="169.3893" cy="179.0798" r="22.4565" gradientUnits="userSpaceOnUse">
				<stop  offset="0" style="stop-color:#FFDC61"/>
				<stop  offset="1" style="stop-color:#FCA84D"/>
			</radialGradient>
			<path class="st11" d="M158.1,188.8l24.7-33.9h7.2v48.4h-9.3v-33.2l-24.3,33.2h-7.5v-48.4h9.3V188.8z"/>
			<radialGradient id="SVGID_13_" cx="230.1411" cy="179.0798" r="26.3324" gradientUnits="userSpaceOnUse">
				<stop  offset="0" style="stop-color:#FFDC61"/>
				<stop  offset="1" style="stop-color:#FCA84D"/>
			</radialGradient>
			<path class="st12" d="M258.5,154.9v48.4h-56.6v-48.4h9.3V195h14.3v-40.1h9.3V195h14.3v-40.1H258.5z"/>
			<radialGradient id="SVGID_14_" cx="290.6541" cy="179.0798" r="22.3468" gradientUnits="userSpaceOnUse">
				<stop  offset="0" style="stop-color:#FFDC61"/>
				<stop  offset="1" style="stop-color:#FCA84D"/>
			</radialGradient>
			<path class="st13" d="M311,154.9v48.4h-9.3v-20.6h-21.9v20.6h-9.4v-48.4h9.4v19.6h21.9v-19.6H311z"/>
			<radialGradient id="SVGID_15_" cx="343.4312" cy="179.0798" r="22.4564" gradientUnits="userSpaceOnUse">
				<stop  offset="0" style="stop-color:#FFDC61"/>
				<stop  offset="1" style="stop-color:#FCA84D"/>
			</radialGradient>
			<path class="st14" d="M332.2,188.8l24.7-33.9h7.2v48.4h-9.3v-33.2l-24.3,33.2h-7.5v-48.4h9.3V188.8z"/>
			<radialGradient id="SVGID_16_" cx="396.453" cy="172.0559" r="26.4356" gradientUnits="userSpaceOnUse">
				<stop  offset="0" style="stop-color:#FFDC61"/>
				<stop  offset="1" style="stop-color:#FCA84D"/>
			</radialGradient>
			<path class="st15" d="M385.2,188.8l24.7-33.9h7.2v48.4h-9.3v-33.2l-24.3,33.2h-7.5v-48.4h9.3V188.8z M409.7,140.8
				c0,1.4-0.3,2.7-0.9,3.9c-0.6,1.2-1.4,2.1-2.5,3c-1.1,0.8-2.3,1.4-3.8,1.9c-1.5,0.4-3.1,0.7-4.9,0.7c-1.8,0-3.4-0.2-4.9-0.7
				c-1.5-0.4-2.8-1-3.8-1.9c-1-0.8-1.9-1.8-2.5-3c-0.6-1.2-0.9-2.4-0.9-3.9h5.6c0,0.6,0.2,1.2,0.5,1.7c0.3,0.5,0.8,1,1.4,1.4
				c0.6,0.4,1.3,0.7,2.1,1c0.8,0.2,1.6,0.3,2.5,0.3c1.7,0,3.2-0.4,4.4-1.3c1.2-0.8,1.9-1.9,2.1-3.2H409.7z"/>
			<radialGradient id="SVGID_17_" cx="465.8241" cy="179.0798" r="21.8444" gradientUnits="userSpaceOnUse">
				<stop  offset="0" style="stop-color:#FFDC61"/>
				<stop  offset="1" style="stop-color:#FCA84D"/>
			</radialGradient>
			<path class="st16" d="M446.6,154.9H482v8.2h-26v11.1h13.4c2.4,0,4.5,0.3,6.4,1c1.9,0.6,3.6,1.6,5,2.8c1.4,1.2,2.5,2.7,3.2,4.5
				c0.8,1.8,1.1,3.8,1.1,6.1c0,4.7-1.4,8.4-4.2,10.9c-2.8,2.5-6.5,3.8-11.2,3.8h-23V154.9z M468.8,195.3c2.2,0,3.9-0.6,5-1.8
				c1.1-1.2,1.7-2.8,1.7-4.9c0-2-0.6-3.6-1.7-4.8c-1.1-1.2-2.8-1.8-5-1.8h-12.8v13.4H468.8z"/>
			<radialGradient id="SVGID_18_" cx="509.7778" cy="179.3185" r="22.994" gradientUnits="userSpaceOnUse">
				<stop  offset="0" style="stop-color:#FFDC61"/>
				<stop  offset="1" style="stop-color:#FCA84D"/>
			</radialGradient>
			<path class="st17" d="M501,203.7c-0.5,0-1,0-1.6-0.1c-0.6-0.1-1.2-0.2-1.8-0.3c-0.6-0.1-1.3-0.3-1.9-0.5
				c-0.6-0.2-1.1-0.5-1.6-0.8l1.2-7.8c0.5,0.3,1.2,0.6,2.1,0.9c0.9,0.4,1.8,0.5,2.8,0.5c1.3,0,2.5-0.4,3.4-1.1
				c1-0.7,1.8-2.1,2.5-4.1l-17.8-35.6h10.2l11.9,26.1l11-26.1h9.9l-17,36.8c-1,2.2-2,4-2.9,5.5c-1,1.5-1.9,2.8-3,3.7
				c-1,1-2.1,1.7-3.3,2.1C503.8,203.5,502.5,203.7,501,203.7z"/>
			<radialGradient id="SVGID_19_" cx="552.3027" cy="185.1115" r="27.5539" gradientUnits="userSpaceOnUse">
				<stop  offset="0" style="stop-color:#FFDC61"/>
				<stop  offset="1" style="stop-color:#FCA84D"/>
			</radialGradient>
			<path class="st18" d="M527.7,195h1.7c1.3,0,2.5-0.4,3.5-1.1c1-0.7,1.9-2.1,2.7-4c0.8-2,1.5-4.6,2-8.1c0.6-3.4,1.1-7.9,1.6-13.3
				l1.2-13.6h29.3V195h7.2v20.3h-8.8v-12.1h-31.6v12.1h-8.9V195z M560.4,195v-31.9H549l-0.7,7.4c-0.5,6.3-1.3,11.5-2.3,15.4
				c-1,4-2.2,7-3.8,9.1H560.4z"/>
			<radialGradient id="SVGID_20_" cx="605.3188" cy="179.0798" r="22.4548" gradientUnits="userSpaceOnUse">
				<stop  offset="0" style="stop-color:#FFDC61"/>
				<stop  offset="1" style="stop-color:#FCA84D"/>
			</radialGradient>
			<path class="st19" d="M594.1,188.8l24.7-33.9h7.2v48.4h-9.3v-33.2l-24.3,33.2h-7.5v-48.4h9.3V188.8z"/>
			<radialGradient id="SVGID_21_" cx="658.1015" cy="179.0798" r="22.3458" gradientUnits="userSpaceOnUse">
				<stop  offset="0" style="stop-color:#FFDC61"/>
				<stop  offset="1" style="stop-color:#FCA84D"/>
			</radialGradient>
			<path class="st20" d="M678.4,154.9v48.4h-9.3v-20.6h-21.9v20.6h-9.4v-48.4h9.4v19.6h21.9v-19.6H678.4z"/>
			<radialGradient id="SVGID_22_" cx="710.8437" cy="179.0849" r="24.0757" gradientUnits="userSpaceOnUse">
				<stop  offset="0" style="stop-color:#FFDC61"/>
				<stop  offset="1" style="stop-color:#FCA84D"/>
			</radialGradient>
			<path class="st21" d="M710.8,203.6c-3.5,0-6.8-0.7-9.6-2.1c-2.9-1.4-5.4-3.2-7.4-5.5c-2.1-2.3-3.7-4.9-4.8-7.9
				c-1.1-3-1.7-6-1.7-9.1c0-3.2,0.6-6.3,1.8-9.3c1.2-3,2.9-5.6,5-7.8c2.1-2.3,4.6-4.1,7.5-5.4c2.9-1.3,6.1-2,9.5-2
				c3.5,0,6.7,0.7,9.6,2.1c2.9,1.4,5.3,3.3,7.4,5.6c2,2.3,3.6,5,4.8,7.9c1.1,3,1.7,6,1.7,9c0,3.2-0.6,6.3-1.8,9.2
				c-1.2,2.9-2.8,5.5-4.9,7.8c-2.1,2.3-4.6,4-7.5,5.4C717.4,203,714.2,203.6,710.8,203.6z M696.8,179.1c0,2.1,0.3,4.1,0.9,6.1
				c0.6,1.9,1.6,3.7,2.8,5.2c1.2,1.5,2.7,2.7,4.4,3.6c1.7,0.9,3.7,1.4,6,1.4c2.3,0,4.3-0.5,6-1.4c1.7-0.9,3.2-2.2,4.4-3.7
				c1.2-1.5,2.1-3.3,2.7-5.2c0.6-1.9,0.9-3.9,0.9-5.9c0-2.1-0.3-4.1-1-6.1c-0.7-1.9-1.6-3.7-2.8-5.2c-1.2-1.5-2.7-2.7-4.4-3.6
				c-1.8-0.9-3.7-1.3-5.9-1.3c-2.3,0-4.3,0.5-6.1,1.4c-1.8,0.9-3.2,2.2-4.4,3.7c-1.2,1.5-2.1,3.2-2.7,5.2
				C697.1,175.1,696.8,177.1,696.8,179.1z"/>
			<radialGradient id="SVGID_23_" cx="763.2128" cy="179.0798" r="22.2055" gradientUnits="userSpaceOnUse">
				<stop  offset="0" style="stop-color:#FFDC61"/>
				<stop  offset="1" style="stop-color:#FCA84D"/>
			</radialGradient>
			<path class="st22" d="M752.5,174.8h3.8l14.7-19.9h10.6l-17.4,23.4l18.9,25h-10.5l-15.5-20h-4.7v20h-9.3v-48.4h9.3V174.8z"/>
		</g>
		<g>
			<radialGradient id="SVGID_24_" cx="429.081" cy="112.2665" r="7.7915" gradientUnits="userSpaceOnUse">
				<stop  offset="0" style="stop-color:#FFDC61"/>
				<stop  offset="1" style="stop-color:#FCA84D"/>
			</radialGradient>
			<rect x="422.9" y="103.1" class="st23" width="12.3" height="18.3"/>
			<radialGradient id="SVGID_25_" cx="413.8197" cy="93.2397" r="6.5844" gradientUnits="userSpaceOnUse">
				<stop  offset="0" style="stop-color:#FFDC61"/>
				<stop  offset="1" style="stop-color:#FCA84D"/>
			</radialGradient>
			<path class="st24" d="M407.7,99.9v0.3H420v-14C413.1,87,407.7,92.8,407.7,99.9z"/>
			<radialGradient id="SVGID_26_" cx="429.081" cy="93.2397" r="6.5846" gradientUnits="userSpaceOnUse">
				<stop  offset="0" style="stop-color:#FFDC61"/>
				<stop  offset="1" style="stop-color:#FCA84D"/>
			</radialGradient>
			<path class="st25" d="M422.9,86.3v14h12.3v-0.3C435.2,92.8,429.8,87,422.9,86.3z"/>
			<radialGradient id="SVGID_27_" cx="413.8197" cy="112.2665" r="7.7913" gradientUnits="userSpaceOnUse">
				<stop  offset="0" style="stop-color:#FFDC61"/>
				<stop  offset="1" style="stop-color:#FCA84D"/>
			</radialGradient>
			<rect x="407.7" y="103.1" class="st26" width="12.3" height="18.3"/>
		</g>
		<g>
			<g>
				<radialGradient id="SVGID_28_" cx="134.6503" cy="232.7607" r="6.1399" gradientUnits="userSpaceOnUse">
					<stop  offset="0" style="stop-color:#FFDC61"/>
					<stop  offset="1" style="stop-color:#FCA84D"/>
				</radialGradient>
				<path class="st27" d="M129.7,239.9v-14.3h9.8v2.2h-7.3v3.7h7.2v2.2h-7.2v4h7.3v2.2H129.7z"/>
				<radialGradient id="SVGID_29_" cx="156.9548" cy="232.7607" r="6.7178" gradientUnits="userSpaceOnUse">
					<stop  offset="0" style="stop-color:#FFDC61"/>
					<stop  offset="1" style="stop-color:#FCA84D"/>
				</radialGradient>
				<path class="st28" d="M160.7,239.9v-6.3h-7.4v6.3h-2.5v-14.3h2.5v5.9h7.4v-5.9h2.5v14.3H160.7z"/>
				<radialGradient id="SVGID_30_" cx="179.7265" cy="232.7607" r="6.1399" gradientUnits="userSpaceOnUse">
					<stop  offset="0" style="stop-color:#FFDC61"/>
					<stop  offset="1" style="stop-color:#FCA84D"/>
				</radialGradient>
				<path class="st29" d="M174.8,239.9v-14.3h9.8v2.2h-7.3v3.7h7.2v2.2h-7.2v4h7.3v2.2H174.8z"/>
				<radialGradient id="SVGID_31_" cx="201.2792" cy="232.7607" r="6.3809" gradientUnits="userSpaceOnUse">
					<stop  offset="0" style="stop-color:#FFDC61"/>
					<stop  offset="1" style="stop-color:#FCA84D"/>
				</radialGradient>
				<path class="st30" d="M195.8,239.9v-14.3h6.3c3,0,4.7,2.1,4.7,4.5c0,2.4-1.7,4.5-4.7,4.5h-3.8v5.4H195.8z M204.2,230.1
					c0-1.4-1-2.3-2.4-2.3h-3.4v4.6h3.4C203.2,232.4,204.2,231.5,204.2,230.1z"/>
				<radialGradient id="SVGID_32_" cx="222.3391" cy="232.7607" r="6.1412" gradientUnits="userSpaceOnUse">
					<stop  offset="0" style="stop-color:#FFDC61"/>
					<stop  offset="1" style="stop-color:#FCA84D"/>
				</radialGradient>
				<path class="st31" d="M217.4,239.9v-14.3h9.8v2.2h-7.3v12.1H217.4z"/>
				<radialGradient id="SVGID_33_" cx="244.2263" cy="232.7666" r="7.3635" gradientUnits="userSpaceOnUse">
					<stop  offset="0" style="stop-color:#FFDC61"/>
					<stop  offset="1" style="stop-color:#FCA84D"/>
				</radialGradient>
				<path class="st32" d="M236.9,232.8c0-4.3,3-7.4,7.3-7.4c4.3,0,7.3,3.1,7.3,7.4c0,4.3-3,7.4-7.3,7.4
					C239.9,240.2,236.9,237,236.9,232.8z M249,232.8c0-3-1.9-5.2-4.7-5.2c-2.9,0-4.7,2.2-4.7,5.2c0,2.9,1.8,5.2,4.7,5.2
					C247.1,237.9,249,235.7,249,232.8z"/>
				<radialGradient id="SVGID_34_" cx="267.4592" cy="232.7607" r="6.1402" gradientUnits="userSpaceOnUse">
					<stop  offset="0" style="stop-color:#FFDC61"/>
					<stop  offset="1" style="stop-color:#FCA84D"/>
				</radialGradient>
				<path class="st33" d="M262.6,239.9v-14.3h9.8v2.2h-7.3v3.7h7.2v2.2h-7.2v4h7.3v2.2H262.6z"/>
				<radialGradient id="SVGID_35_" cx="290.9457" cy="232.7607" r="7.6265" gradientUnits="userSpaceOnUse">
					<stop  offset="0" style="stop-color:#FFDC61"/>
					<stop  offset="1" style="stop-color:#FCA84D"/>
				</radialGradient>
				<path class="st34" d="M289.7,239.9v-1.4c-4.3-0.3-6.8-2.4-6.8-5.7c0-3.2,2.6-5.4,6.8-5.7v-1.5h2.5v1.4c4.2,0.3,6.8,2.5,6.8,5.7
					c0,3.3-2.6,5.4-6.8,5.7v1.4H289.7z M289.7,236.2v-7c-2.7,0.3-4.2,1.6-4.2,3.5C285.5,234.7,287,235.9,289.7,236.2z M292.2,229.3
					v7c2.7-0.3,4.2-1.6,4.2-3.5C296.4,230.9,294.9,229.6,292.2,229.3z"/>
				<radialGradient id="SVGID_36_" cx="314.9218" cy="232.7607" r="6.1399" gradientUnits="userSpaceOnUse">
					<stop  offset="0" style="stop-color:#FFDC61"/>
					<stop  offset="1" style="stop-color:#FCA84D"/>
				</radialGradient>
				<path class="st35" d="M310,239.9v-14.3h9.8v2.2h-7.3v3.7h7.2v2.2h-7.2v4h7.3v2.2H310z"/>
				<radialGradient id="SVGID_37_" cx="336.8183" cy="232.7607" r="6.5319" gradientUnits="userSpaceOnUse">
					<stop  offset="0" style="stop-color:#FFDC61"/>
					<stop  offset="1" style="stop-color:#FCA84D"/>
				</radialGradient>
				<path class="st36" d="M339.6,239.9l-4.8-6l-1.2,1.5v4.6H331v-14.3h2.5v6.8l5.6-6.8h3.1l-5.8,6.8l6.3,7.6H339.6z"/>
				<radialGradient id="SVGID_38_" cx="357.5779" cy="232.7607" r="6.4276" gradientUnits="userSpaceOnUse">
					<stop  offset="0" style="stop-color:#FFDC61"/>
					<stop  offset="1" style="stop-color:#FCA84D"/>
				</radialGradient>
				<path class="st37" d="M356.3,239.9v-12.1H352v-2.2h11.2v2.2h-4.3v12.1H356.3z"/>
				<radialGradient id="SVGID_39_" cx="380.0844" cy="232.7607" r="6.7029" gradientUnits="userSpaceOnUse">
					<stop  offset="0" style="stop-color:#FFDC61"/>
					<stop  offset="1" style="stop-color:#FCA84D"/>
				</radialGradient>
				<path class="st38" d="M373.9,239.9v-14.3h2.5v9.9l7.3-9.9h2.6v14.3h-2.5v-10.2l-7.5,10.2H373.9z"/>
				<radialGradient id="SVGID_40_" cx="403.6167" cy="232.7607" r="6.4739" gradientUnits="userSpaceOnUse">
					<stop  offset="0" style="stop-color:#FFDC61"/>
					<stop  offset="1" style="stop-color:#FCA84D"/>
				</radialGradient>
				<path class="st39" d="M397.9,239.9v-14.3h7c2.6,0,4.1,1.6,4.1,3.7c0,1.8-1.2,3-2.5,3.3c1.5,0.2,2.8,1.8,2.8,3.5
					c0,2.2-1.5,3.9-4.2,3.9H397.9z M406.5,229.7c0-1.1-0.7-1.9-2-1.9h-4v3.7h4C405.7,231.5,406.5,230.8,406.5,229.7z M406.7,235.7
					c0-1.1-0.8-2-2.2-2h-4.1v4h4.1C405.9,237.7,406.7,236.9,406.7,235.7z"/>
				<radialGradient id="SVGID_41_" cx="426.6484" cy="232.7607" r="6.7167" gradientUnits="userSpaceOnUse">
					<stop  offset="0" style="stop-color:#FFDC61"/>
					<stop  offset="1" style="stop-color:#FCA84D"/>
				</radialGradient>
				<path class="st40" d="M430.4,239.9v-6.3h-7.4v6.3h-2.5v-14.3h2.5v5.9h7.4v-5.9h2.5v14.3H430.4z"/>
				<radialGradient id="SVGID_42_" cx="445.7773" cy="232.7607" r="5.1432" gradientUnits="userSpaceOnUse">
					<stop  offset="0" style="stop-color:#FFDC61"/>
					<stop  offset="1" style="stop-color:#FCA84D"/>
				</radialGradient>
				<path class="st41" d="M444.5,239.9v-14.3h2.5v14.3H444.5z"/>
				<radialGradient id="SVGID_43_" cx="477.4418" cy="232.7607" r="6.4278" gradientUnits="userSpaceOnUse">
					<stop  offset="0" style="stop-color:#FFDC61"/>
					<stop  offset="1" style="stop-color:#FCA84D"/>
				</radialGradient>
				<path class="st42" d="M476.2,239.9v-12.1h-4.3v-2.2H483v2.2h-4.3v12.1H476.2z"/>
				<radialGradient id="SVGID_44_" cx="498.6503" cy="232.7607" r="6.1411" gradientUnits="userSpaceOnUse">
					<stop  offset="0" style="stop-color:#FFDC61"/>
					<stop  offset="1" style="stop-color:#FCA84D"/>
				</radialGradient>
				<path class="st43" d="M493.7,239.9v-14.3h9.8v2.2h-7.3v3.7h7.2v2.2h-7.2v4h7.3v2.2H493.7z"/>
				<radialGradient id="SVGID_45_" cx="520.2753" cy="232.7607" r="7.0931" gradientUnits="userSpaceOnUse">
					<stop  offset="0" style="stop-color:#FFDC61"/>
					<stop  offset="1" style="stop-color:#FCA84D"/>
				</radialGradient>
				<path class="st44" d="M524.3,239.9l-4-5.6l-4,5.6h-3l5.4-7.4l-5-7h3l3.7,5.3l3.7-5.3h3l-5,7l5.3,7.4H524.3z"/>
				<radialGradient id="SVGID_46_" cx="543.7271" cy="232.7607" r="6.7179" gradientUnits="userSpaceOnUse">
					<stop  offset="0" style="stop-color:#FFDC61"/>
					<stop  offset="1" style="stop-color:#FCA84D"/>
				</radialGradient>
				<path class="st45" d="M547.5,239.9v-6.3H540v6.3h-2.5v-14.3h2.5v5.9h7.4v-5.9h2.5v14.3H547.5z"/>
				<radialGradient id="SVGID_47_" cx="568.2748" cy="232.7666" r="7.3607" gradientUnits="userSpaceOnUse">
					<stop  offset="0" style="stop-color:#FFDC61"/>
					<stop  offset="1" style="stop-color:#FCA84D"/>
				</radialGradient>
				<path class="st46" d="M561,232.8c0-4.3,3-7.4,7.3-7.4c4.3,0,7.3,3.1,7.3,7.4c0,4.3-3,7.4-7.3,7.4C564,240.2,561,237,561,232.8z
					 M573,232.8c0-3-1.9-5.2-4.7-5.2c-2.9,0-4.7,2.2-4.7,5.2c0,2.9,1.8,5.2,4.7,5.2C571.1,237.9,573,235.7,573,232.8z"/>
				<radialGradient id="SVGID_48_" cx="591.6274" cy="232.8828" r="6.9967" gradientUnits="userSpaceOnUse">
					<stop  offset="0" style="stop-color:#FFDC61"/>
					<stop  offset="1" style="stop-color:#FCA84D"/>
				</radialGradient>
				<path class="st47" d="M584.9,237.9c1.5,0,2.3-0.7,2.8-5l0.8-7.4h9.7v14.3h-2.5v-12.1h-5l-0.6,5.3c-0.7,6.1-2.5,7-5.3,7V237.9z"
					/>
				<radialGradient id="SVGID_49_" cx="616.6386" cy="232.7666" r="7.3619" gradientUnits="userSpaceOnUse">
					<stop  offset="0" style="stop-color:#FFDC61"/>
					<stop  offset="1" style="stop-color:#FCA84D"/>
				</radialGradient>
				<path class="st48" d="M609.3,232.8c0-4.3,3-7.4,7.3-7.4c4.3,0,7.3,3.1,7.3,7.4c0,4.3-3,7.4-7.3,7.4
					C612.3,240.2,609.3,237,609.3,232.8z M621.4,232.8c0-3-1.9-5.2-4.7-5.2c-2.9,0-4.8,2.2-4.8,5.2c0,2.9,1.8,5.2,4.8,5.2
					C619.5,237.9,621.4,235.7,621.4,232.8z"/>
				<radialGradient id="SVGID_50_" cx="639.8803" cy="232.7607" r="6.1401" gradientUnits="userSpaceOnUse">
					<stop  offset="0" style="stop-color:#FFDC61"/>
					<stop  offset="1" style="stop-color:#FCA84D"/>
				</radialGradient>
				<path class="st49" d="M635,239.9v-14.3h9.8v2.2h-7.3v12.1H635z"/>
				<radialGradient id="SVGID_51_" cx="656.8769" cy="232.7607" r="5.1436" gradientUnits="userSpaceOnUse">
					<stop  offset="0" style="stop-color:#FFDC61"/>
					<stop  offset="1" style="stop-color:#FCA84D"/>
				</radialGradient>
				<path class="st50" d="M655.6,239.9v-14.3h2.5v14.3H655.6z"/>
				<radialGradient id="SVGID_52_" cx="671.02" cy="230.9814" r="6.7943" gradientUnits="userSpaceOnUse">
					<stop  offset="0" style="stop-color:#FFDC61"/>
					<stop  offset="1" style="stop-color:#FCA84D"/>
				</radialGradient>
				<path class="st51" d="M668.8,224.5c-0.7,0-1.3-0.6-1.3-1.3c0-0.7,0.6-1.2,1.3-1.2c0.7,0,1.2,0.5,1.2,1.2
					C670,224,669.5,224.5,668.8,224.5z M669.8,239.9v-14.3h2.5v14.3H669.8z M673.3,224.5c-0.7,0-1.3-0.6-1.3-1.3
					c0-0.7,0.6-1.2,1.3-1.2c0.7,0,1.3,0.5,1.3,1.2C674.5,224,674,224.5,673.3,224.5z"/>
			</g>
		</g>
	</g>
</g>
</svg>
